<mxfile host="app.diagrams.net" modified="2020-06-17T16:30:46.716Z" agent="5.0 (Windows)" etag="A68RHBJnwJzU10o-gCeQ" version="13.2.6" type="github">
  <diagram id="8SPaC2NhHjIFXykHgB_J" name="Page-1">
    <mxGraphModel dx="1510" dy="2398" grid="1" gridSize="10" guides="1" tooltips="1" connect="1" arrows="1" fold="1" page="1" pageScale="1" pageWidth="827" pageHeight="1169" math="0" shadow="0">
      <root>
        <mxCell id="0" />
        <mxCell id="1" parent="0" />
        <mxCell id="HVSGsjcz3k99OCwDuniL-1" style="edgeStyle=orthogonalEdgeStyle;rounded=0;orthogonalLoop=1;jettySize=auto;html=1;entryX=0.5;entryY=0;entryDx=0;entryDy=0;fontSize=9;fontStyle=0;verticalAlign=middle;labelPosition=center;verticalLabelPosition=middle;align=center;" parent="1" source="HVSGsjcz3k99OCwDuniL-2" target="HVSGsjcz3k99OCwDuniL-4" edge="1">
          <mxGeometry relative="1" as="geometry" />
        </mxCell>
        <mxCell id="HVSGsjcz3k99OCwDuniL-2" value="Перенаправление на страницу &quot;записать&quot;" style="rounded=0;whiteSpace=wrap;html=1;fontSize=9;fontStyle=0;verticalAlign=middle;labelPosition=center;verticalLabelPosition=middle;align=center;" parent="1" vertex="1">
          <mxGeometry x="322.5" y="240" width="95" height="40" as="geometry" />
        </mxCell>
        <mxCell id="HVSGsjcz3k99OCwDuniL-3" value="Нет" style="edgeStyle=orthogonalEdgeStyle;rounded=0;orthogonalLoop=1;jettySize=auto;html=1;entryX=0.5;entryY=0;entryDx=0;entryDy=0;exitX=0;exitY=0.5;exitDx=0;exitDy=0;fontSize=9;fontStyle=0;verticalAlign=middle;labelPosition=center;verticalLabelPosition=middle;align=center;" parent="1" source="HVSGsjcz3k99OCwDuniL-4" target="HVSGsjcz3k99OCwDuniL-11" edge="1">
          <mxGeometry x="-0.4199" relative="1" as="geometry">
            <mxPoint as="offset" />
          </mxGeometry>
        </mxCell>
        <mxCell id="HVSGsjcz3k99OCwDuniL-4" value="Записать&amp;nbsp;&lt;br style=&quot;font-size: 9px;&quot;&gt;клиента?" style="rhombus;whiteSpace=wrap;html=1;fontSize=9;fontStyle=0;verticalAlign=middle;labelPosition=center;verticalLabelPosition=middle;align=center;" parent="1" vertex="1">
          <mxGeometry x="320" y="315" width="100" height="50" as="geometry" />
        </mxCell>
        <mxCell id="HVSGsjcz3k99OCwDuniL-5" value="Да" style="edgeStyle=orthogonalEdgeStyle;rounded=0;orthogonalLoop=1;jettySize=auto;html=1;entryX=0.5;entryY=0;entryDx=0;entryDy=0;fontSize=9;fontStyle=0;verticalAlign=middle;labelPosition=center;verticalLabelPosition=middle;align=center;" parent="1" target="HVSGsjcz3k99OCwDuniL-9" edge="1">
          <mxGeometry relative="1" as="geometry">
            <mxPoint x="420" y="340" as="sourcePoint" />
          </mxGeometry>
        </mxCell>
        <mxCell id="HVSGsjcz3k99OCwDuniL-6" style="edgeStyle=orthogonalEdgeStyle;rounded=0;orthogonalLoop=1;jettySize=auto;html=1;exitX=1;exitY=0.5;exitDx=0;exitDy=0;fontSize=9;fontStyle=0;verticalAlign=middle;labelPosition=center;verticalLabelPosition=middle;align=center;" parent="1" source="HVSGsjcz3k99OCwDuniL-7" edge="1">
          <mxGeometry relative="1" as="geometry">
            <mxPoint x="370" y="295" as="targetPoint" />
            <Array as="points">
              <mxPoint x="630" y="405" />
              <mxPoint x="630" y="295" />
            </Array>
          </mxGeometry>
        </mxCell>
        <mxCell id="HVSGsjcz3k99OCwDuniL-7" value="Сохранение данных" style="rounded=0;whiteSpace=wrap;html=1;fontSize=9;fontStyle=0;verticalAlign=middle;labelPosition=center;verticalLabelPosition=middle;align=center;" parent="1" vertex="1">
          <mxGeometry x="520" y="390" width="90" height="30" as="geometry" />
        </mxCell>
        <mxCell id="HVSGsjcz3k99OCwDuniL-8" style="edgeStyle=orthogonalEdgeStyle;rounded=0;orthogonalLoop=1;jettySize=auto;html=1;entryX=0.5;entryY=0;entryDx=0;entryDy=0;exitX=1;exitY=0.5;exitDx=0;exitDy=0;fontSize=9;fontStyle=0;verticalAlign=middle;labelPosition=center;verticalLabelPosition=middle;align=center;" parent="1" source="HVSGsjcz3k99OCwDuniL-9" target="HVSGsjcz3k99OCwDuniL-7" edge="1">
          <mxGeometry relative="1" as="geometry">
            <Array as="points">
              <mxPoint x="511" y="370" />
              <mxPoint x="565" y="370" />
            </Array>
          </mxGeometry>
        </mxCell>
        <mxCell id="HVSGsjcz3k99OCwDuniL-9" value="&lt;span style=&quot;font-size: 9px;&quot;&gt;Ввод данных&lt;/span&gt;" style="shape=parallelogram;perimeter=parallelogramPerimeter;whiteSpace=wrap;html=1;fontSize=9;fontStyle=0;verticalAlign=middle;labelPosition=center;verticalLabelPosition=middle;align=center;" parent="1" vertex="1">
          <mxGeometry x="430" y="360" width="90" height="25" as="geometry" />
        </mxCell>
        <mxCell id="HVSGsjcz3k99OCwDuniL-10" style="edgeStyle=orthogonalEdgeStyle;rounded=0;orthogonalLoop=1;jettySize=auto;html=1;fontSize=9;fontStyle=0;verticalAlign=middle;labelPosition=center;verticalLabelPosition=middle;align=center;" parent="1" source="HVSGsjcz3k99OCwDuniL-11" target="HVSGsjcz3k99OCwDuniL-13" edge="1">
          <mxGeometry relative="1" as="geometry" />
        </mxCell>
        <mxCell id="HVSGsjcz3k99OCwDuniL-11" value="Перенаправление на страницу &quot;Записи&quot;" style="rounded=0;whiteSpace=wrap;html=1;fontSize=9;fontStyle=0;verticalAlign=middle;labelPosition=center;verticalLabelPosition=middle;align=center;" parent="1" vertex="1">
          <mxGeometry x="322.47" y="405" width="95" height="40" as="geometry" />
        </mxCell>
        <mxCell id="HVSGsjcz3k99OCwDuniL-12" value="Нет" style="edgeStyle=orthogonalEdgeStyle;rounded=0;orthogonalLoop=1;jettySize=auto;html=1;entryX=0.5;entryY=0;entryDx=0;entryDy=0;exitX=0;exitY=0.5;exitDx=0;exitDy=0;fontSize=9;fontStyle=0;verticalAlign=middle;labelPosition=center;verticalLabelPosition=middle;align=center;" parent="1" source="HVSGsjcz3k99OCwDuniL-13" target="HVSGsjcz3k99OCwDuniL-15" edge="1">
          <mxGeometry x="-0.4678" relative="1" as="geometry">
            <Array as="points">
              <mxPoint x="300" y="505" />
              <mxPoint x="300" y="550" />
              <mxPoint x="370" y="550" />
            </Array>
            <mxPoint as="offset" />
          </mxGeometry>
        </mxCell>
        <mxCell id="HVSGsjcz3k99OCwDuniL-13" value="Работать &lt;br style=&quot;font-size: 9px;&quot;&gt;с записью?" style="rhombus;whiteSpace=wrap;html=1;fontSize=9;fontStyle=0;verticalAlign=middle;labelPosition=center;verticalLabelPosition=middle;align=center;" parent="1" vertex="1">
          <mxGeometry x="320" y="480" width="100" height="50" as="geometry" />
        </mxCell>
        <mxCell id="HVSGsjcz3k99OCwDuniL-14" style="edgeStyle=orthogonalEdgeStyle;rounded=0;orthogonalLoop=1;jettySize=auto;html=1;fontSize=9;fontStyle=0;verticalAlign=middle;labelPosition=center;verticalLabelPosition=middle;align=center;" parent="1" source="HVSGsjcz3k99OCwDuniL-15" target="HVSGsjcz3k99OCwDuniL-18" edge="1">
          <mxGeometry relative="1" as="geometry" />
        </mxCell>
        <mxCell id="HVSGsjcz3k99OCwDuniL-15" value="Перенаправление на страницу &quot;Смены&quot;" style="rounded=0;whiteSpace=wrap;html=1;fontSize=9;fontStyle=0;verticalAlign=middle;labelPosition=center;verticalLabelPosition=middle;align=center;" parent="1" vertex="1">
          <mxGeometry x="322.47" y="565" width="95" height="40" as="geometry" />
        </mxCell>
        <mxCell id="HVSGsjcz3k99OCwDuniL-16" value="Нет" style="edgeStyle=orthogonalEdgeStyle;rounded=0;orthogonalLoop=1;jettySize=auto;html=1;entryX=0.5;entryY=0;entryDx=0;entryDy=0;exitX=0;exitY=0.5;exitDx=0;exitDy=0;fontSize=9;fontStyle=0;verticalAlign=middle;labelPosition=center;verticalLabelPosition=middle;align=center;" parent="1" source="HVSGsjcz3k99OCwDuniL-18" target="HVSGsjcz3k99OCwDuniL-19" edge="1">
          <mxGeometry relative="1" as="geometry" />
        </mxCell>
        <mxCell id="HVSGsjcz3k99OCwDuniL-17" value="Да" style="edgeStyle=orthogonalEdgeStyle;rounded=0;orthogonalLoop=1;jettySize=auto;html=1;entryX=0.5;entryY=0;entryDx=0;entryDy=0;fontSize=9;" parent="1" source="HVSGsjcz3k99OCwDuniL-18" target="HVSGsjcz3k99OCwDuniL-34" edge="1">
          <mxGeometry x="-0.2258" relative="1" as="geometry">
            <mxPoint as="offset" />
          </mxGeometry>
        </mxCell>
        <mxCell id="HVSGsjcz3k99OCwDuniL-18" value="Закрыть смену?" style="rhombus;whiteSpace=wrap;html=1;fontSize=9;fontStyle=0;verticalAlign=middle;labelPosition=center;verticalLabelPosition=middle;align=center;" parent="1" vertex="1">
          <mxGeometry x="320" y="680" width="100" height="50" as="geometry" />
        </mxCell>
        <mxCell id="HVSGsjcz3k99OCwDuniL-19" value="Конец" style="ellipse;whiteSpace=wrap;html=1;fontSize=9;fontStyle=0;verticalAlign=middle;labelPosition=center;verticalLabelPosition=middle;align=center;" parent="1" vertex="1">
          <mxGeometry x="280" y="835" width="40" height="40" as="geometry" />
        </mxCell>
        <mxCell id="HVSGsjcz3k99OCwDuniL-20" style="edgeStyle=orthogonalEdgeStyle;rounded=0;orthogonalLoop=1;jettySize=auto;html=1;entryX=0;entryY=0.5;entryDx=0;entryDy=0;fontSize=9;exitX=0.5;exitY=1;exitDx=0;exitDy=0;" parent="1" source="HVSGsjcz3k99OCwDuniL-21" target="HVSGsjcz3k99OCwDuniL-19" edge="1">
          <mxGeometry relative="1" as="geometry" />
        </mxCell>
        <mxCell id="HVSGsjcz3k99OCwDuniL-21" value="&lt;font style=&quot;font-size: 9px;&quot;&gt;А&lt;/font&gt;" style="ellipse;whiteSpace=wrap;html=1;fontSize=9;fontStyle=0;verticalAlign=middle;labelPosition=center;verticalLabelPosition=middle;align=center;" parent="1" vertex="1">
          <mxGeometry x="200" y="160" width="40" height="40" as="geometry" />
        </mxCell>
        <mxCell id="HVSGsjcz3k99OCwDuniL-22" style="edgeStyle=orthogonalEdgeStyle;rounded=0;orthogonalLoop=1;jettySize=auto;html=1;entryX=0.5;entryY=0;entryDx=0;entryDy=0;fontSize=9;" parent="1" source="HVSGsjcz3k99OCwDuniL-23" target="HVSGsjcz3k99OCwDuniL-2" edge="1">
          <mxGeometry relative="1" as="geometry" />
        </mxCell>
        <mxCell id="HVSGsjcz3k99OCwDuniL-23" value="&lt;font style=&quot;font-size: 9px;&quot;&gt;Б&lt;/font&gt;" style="ellipse;whiteSpace=wrap;html=1;fontSize=9;fontStyle=0;verticalAlign=middle;labelPosition=center;verticalLabelPosition=middle;align=center;" parent="1" vertex="1">
          <mxGeometry x="350" y="160" width="40" height="40" as="geometry" />
        </mxCell>
        <mxCell id="HVSGsjcz3k99OCwDuniL-24" value="Да" style="edgeStyle=orthogonalEdgeStyle;rounded=0;orthogonalLoop=1;jettySize=auto;html=1;entryX=0.5;entryY=0;entryDx=0;entryDy=0;fontSize=9;fontStyle=0;verticalAlign=middle;labelPosition=center;verticalLabelPosition=middle;align=center;exitX=1;exitY=0.5;exitDx=0;exitDy=0;" parent="1" source="HVSGsjcz3k99OCwDuniL-13" target="HVSGsjcz3k99OCwDuniL-28" edge="1">
          <mxGeometry x="-0.3216" relative="1" as="geometry">
            <mxPoint x="450" y="482.5" as="sourcePoint" />
            <mxPoint as="offset" />
          </mxGeometry>
        </mxCell>
        <mxCell id="HVSGsjcz3k99OCwDuniL-25" style="edgeStyle=orthogonalEdgeStyle;rounded=0;orthogonalLoop=1;jettySize=auto;html=1;fontSize=9;" parent="1" source="HVSGsjcz3k99OCwDuniL-26" edge="1">
          <mxGeometry relative="1" as="geometry">
            <mxPoint x="370" y="460" as="targetPoint" />
            <Array as="points">
              <mxPoint x="690" y="620" />
              <mxPoint x="690" y="460" />
            </Array>
          </mxGeometry>
        </mxCell>
        <mxCell id="HVSGsjcz3k99OCwDuniL-26" value="Сохранение данных" style="rounded=0;whiteSpace=wrap;html=1;fontSize=9;fontStyle=0;verticalAlign=middle;labelPosition=center;verticalLabelPosition=middle;align=center;" parent="1" vertex="1">
          <mxGeometry x="580" y="605" width="90" height="30" as="geometry" />
        </mxCell>
        <mxCell id="HVSGsjcz3k99OCwDuniL-27" style="edgeStyle=orthogonalEdgeStyle;rounded=0;orthogonalLoop=1;jettySize=auto;html=1;entryX=0.5;entryY=0;entryDx=0;entryDy=0;fontSize=9;" parent="1" source="HVSGsjcz3k99OCwDuniL-28" target="HVSGsjcz3k99OCwDuniL-30" edge="1">
          <mxGeometry relative="1" as="geometry">
            <Array as="points">
              <mxPoint x="545" y="542" />
            </Array>
          </mxGeometry>
        </mxCell>
        <mxCell id="HVSGsjcz3k99OCwDuniL-28" value="&lt;div style=&quot;font-size: 9px;&quot;&gt;Выбор &lt;br style=&quot;font-size: 9px;&quot;&gt;&lt;/div&gt;&lt;div style=&quot;font-size: 9px;&quot;&gt;группы&lt;/div&gt;" style="shape=parallelogram;perimeter=parallelogramPerimeter;whiteSpace=wrap;html=1;fontSize=9;fontStyle=0;verticalAlign=middle;labelPosition=center;verticalLabelPosition=middle;align=center;" parent="1" vertex="1">
          <mxGeometry x="427" y="530" width="90" height="25" as="geometry" />
        </mxCell>
        <mxCell id="HVSGsjcz3k99OCwDuniL-29" style="edgeStyle=orthogonalEdgeStyle;rounded=0;orthogonalLoop=1;jettySize=auto;html=1;fontSize=9;exitX=1;exitY=0.5;exitDx=0;exitDy=0;" parent="1" source="HVSGsjcz3k99OCwDuniL-30" target="HVSGsjcz3k99OCwDuniL-26" edge="1">
          <mxGeometry relative="1" as="geometry">
            <Array as="points">
              <mxPoint x="625" y="578" />
            </Array>
          </mxGeometry>
        </mxCell>
        <mxCell id="HVSGsjcz3k99OCwDuniL-30" value="&lt;span style=&quot;font-size: 9px;&quot;&gt;Ввод данных&lt;/span&gt;" style="shape=parallelogram;perimeter=parallelogramPerimeter;whiteSpace=wrap;html=1;fontSize=9;fontStyle=0;verticalAlign=middle;labelPosition=center;verticalLabelPosition=middle;align=center;" parent="1" vertex="1">
          <mxGeometry x="500" y="565" width="90" height="25" as="geometry" />
        </mxCell>
        <mxCell id="HVSGsjcz3k99OCwDuniL-31" style="edgeStyle=orthogonalEdgeStyle;rounded=0;orthogonalLoop=1;jettySize=auto;html=1;fontSize=9;" parent="1" source="HVSGsjcz3k99OCwDuniL-32" edge="1">
          <mxGeometry relative="1" as="geometry">
            <mxPoint x="370" y="650.0000000000002" as="targetPoint" />
            <Array as="points">
              <mxPoint x="710" y="818" />
              <mxPoint x="710" y="650" />
            </Array>
          </mxGeometry>
        </mxCell>
        <mxCell id="HVSGsjcz3k99OCwDuniL-32" value="Сохранение данных" style="rounded=0;whiteSpace=wrap;html=1;fontSize=9;fontStyle=0;verticalAlign=middle;labelPosition=center;verticalLabelPosition=middle;align=center;" parent="1" vertex="1">
          <mxGeometry x="583" y="802.5" width="90" height="30" as="geometry" />
        </mxCell>
        <mxCell id="HVSGsjcz3k99OCwDuniL-33" style="edgeStyle=orthogonalEdgeStyle;rounded=0;orthogonalLoop=1;jettySize=auto;html=1;entryX=0.5;entryY=0;entryDx=0;entryDy=0;fontSize=9;" parent="1" source="HVSGsjcz3k99OCwDuniL-34" target="HVSGsjcz3k99OCwDuniL-36" edge="1">
          <mxGeometry relative="1" as="geometry">
            <Array as="points">
              <mxPoint x="548" y="739.5" />
            </Array>
          </mxGeometry>
        </mxCell>
        <mxCell id="HVSGsjcz3k99OCwDuniL-34" value="&lt;div style=&quot;font-size: 9px&quot;&gt;Выбор &lt;br style=&quot;font-size: 9px&quot;&gt;&lt;/div&gt;&lt;div style=&quot;font-size: 9px&quot;&gt;смены&lt;br&gt;&lt;/div&gt;" style="shape=parallelogram;perimeter=parallelogramPerimeter;whiteSpace=wrap;html=1;fontSize=9;fontStyle=0;verticalAlign=middle;labelPosition=center;verticalLabelPosition=middle;align=center;" parent="1" vertex="1">
          <mxGeometry x="430" y="727.5" width="90" height="25" as="geometry" />
        </mxCell>
        <mxCell id="HVSGsjcz3k99OCwDuniL-35" style="edgeStyle=orthogonalEdgeStyle;rounded=0;orthogonalLoop=1;jettySize=auto;html=1;fontSize=9;exitX=1;exitY=0.5;exitDx=0;exitDy=0;" parent="1" source="HVSGsjcz3k99OCwDuniL-36" target="HVSGsjcz3k99OCwDuniL-32" edge="1">
          <mxGeometry relative="1" as="geometry">
            <Array as="points">
              <mxPoint x="628" y="775.5" />
            </Array>
          </mxGeometry>
        </mxCell>
        <mxCell id="HVSGsjcz3k99OCwDuniL-36" value="&lt;span style=&quot;font-size: 9px;&quot;&gt;Ввод данных&lt;/span&gt;" style="shape=parallelogram;perimeter=parallelogramPerimeter;whiteSpace=wrap;html=1;fontSize=9;fontStyle=0;verticalAlign=middle;labelPosition=center;verticalLabelPosition=middle;align=center;" parent="1" vertex="1">
          <mxGeometry x="503" y="762.5" width="90" height="25" as="geometry" />
        </mxCell>
        <mxCell id="rpMUZzlqwuOw-LUmZ4mw-21" value="&lt;font style=&quot;font-size: 9px;&quot;&gt;А&lt;/font&gt;" style="ellipse;whiteSpace=wrap;html=1;fontSize=9;fontStyle=0;verticalAlign=middle;labelPosition=center;verticalLabelPosition=middle;align=center;" parent="1" vertex="1">
          <mxGeometry x="880" y="292.5" width="40" height="40" as="geometry" />
        </mxCell>
        <mxCell id="rpMUZzlqwuOw-LUmZ4mw-40" style="edgeStyle=orthogonalEdgeStyle;rounded=0;orthogonalLoop=1;jettySize=auto;html=1;entryX=0.5;entryY=0;entryDx=0;entryDy=0;fontSize=9;" parent="1" source="rpMUZzlqwuOw-LUmZ4mw-23" target="rpMUZzlqwuOw-LUmZ4mw-37" edge="1">
          <mxGeometry relative="1" as="geometry" />
        </mxCell>
        <mxCell id="rpMUZzlqwuOw-LUmZ4mw-23" value="Начало" style="ellipse;whiteSpace=wrap;html=1;fontSize=9;fontStyle=0;verticalAlign=middle;labelPosition=center;verticalLabelPosition=middle;align=center;" parent="1" vertex="1">
          <mxGeometry x="1000" y="160" width="40" height="40" as="geometry" />
        </mxCell>
        <mxCell id="rpMUZzlqwuOw-LUmZ4mw-41" value="Нет" style="edgeStyle=orthogonalEdgeStyle;rounded=0;orthogonalLoop=1;jettySize=auto;html=1;fontSize=9;entryX=0.5;entryY=0;entryDx=0;entryDy=0;" parent="1" source="rpMUZzlqwuOw-LUmZ4mw-37" target="rpMUZzlqwuOw-LUmZ4mw-21" edge="1">
          <mxGeometry x="-0.4286" relative="1" as="geometry">
            <mxPoint x="900" y="342.5" as="targetPoint" />
            <mxPoint as="offset" />
          </mxGeometry>
        </mxCell>
        <mxCell id="rpMUZzlqwuOw-LUmZ4mw-44" style="edgeStyle=orthogonalEdgeStyle;rounded=0;orthogonalLoop=1;jettySize=auto;html=1;fontSize=9;entryX=0.514;entryY=0.021;entryDx=0;entryDy=0;entryPerimeter=0;exitX=1;exitY=0.5;exitDx=0;exitDy=0;" parent="1" source="rpMUZzlqwuOw-LUmZ4mw-37" target="rpMUZzlqwuOw-LUmZ4mw-46" edge="1">
          <mxGeometry relative="1" as="geometry">
            <mxPoint x="1100" y="312.5" as="targetPoint" />
          </mxGeometry>
        </mxCell>
        <mxCell id="rpMUZzlqwuOw-LUmZ4mw-45" value="Да" style="edgeLabel;html=1;align=center;verticalAlign=middle;resizable=0;points=[];fontSize=9;" parent="rpMUZzlqwuOw-LUmZ4mw-44" vertex="1" connectable="0">
          <mxGeometry x="-0.4747" relative="1" as="geometry">
            <mxPoint x="-0.20000000000000018" as="offset" />
          </mxGeometry>
        </mxCell>
        <mxCell id="rpMUZzlqwuOw-LUmZ4mw-37" value="Авторизоваться?" style="rhombus;whiteSpace=wrap;html=1;fontSize=9;fontStyle=0;verticalAlign=middle;labelPosition=center;verticalLabelPosition=middle;align=center;" parent="1" vertex="1">
          <mxGeometry x="970" y="232.5" width="100" height="50" as="geometry" />
        </mxCell>
        <mxCell id="rpMUZzlqwuOw-LUmZ4mw-48" style="edgeStyle=orthogonalEdgeStyle;rounded=0;orthogonalLoop=1;jettySize=auto;html=1;entryX=0.5;entryY=0;entryDx=0;entryDy=0;fontSize=9;" parent="1" source="rpMUZzlqwuOw-LUmZ4mw-46" target="rpMUZzlqwuOw-LUmZ4mw-47" edge="1">
          <mxGeometry relative="1" as="geometry" />
        </mxCell>
        <mxCell id="rpMUZzlqwuOw-LUmZ4mw-46" value="&lt;span style=&quot;font-size: 9px;&quot;&gt;Ввод данных&lt;/span&gt;" style="shape=parallelogram;perimeter=parallelogramPerimeter;whiteSpace=wrap;html=1;fontSize=9;fontStyle=0;verticalAlign=middle;labelPosition=center;verticalLabelPosition=middle;align=center;" parent="1" vertex="1">
          <mxGeometry x="1090" y="300" width="90" height="25" as="geometry" />
        </mxCell>
        <mxCell id="rpMUZzlqwuOw-LUmZ4mw-49" value="Нет" style="edgeStyle=orthogonalEdgeStyle;rounded=0;orthogonalLoop=1;jettySize=auto;html=1;fontSize=9;" parent="1" source="rpMUZzlqwuOw-LUmZ4mw-47" edge="1">
          <mxGeometry x="-0.6111" relative="1" as="geometry">
            <mxPoint x="1020" y="212.5" as="targetPoint" />
            <Array as="points">
              <mxPoint x="1200" y="377.5" />
              <mxPoint x="1200" y="212.5" />
            </Array>
            <mxPoint as="offset" />
          </mxGeometry>
        </mxCell>
        <mxCell id="rpMUZzlqwuOw-LUmZ4mw-50" style="edgeStyle=orthogonalEdgeStyle;rounded=0;orthogonalLoop=1;jettySize=auto;html=1;fontSize=9;entryX=0.5;entryY=0;entryDx=0;entryDy=0;" parent="1" source="rpMUZzlqwuOw-LUmZ4mw-47" target="rpMUZzlqwuOw-LUmZ4mw-59" edge="1">
          <mxGeometry relative="1" as="geometry">
            <mxPoint x="940" y="377.5" as="targetPoint" />
          </mxGeometry>
        </mxCell>
        <mxCell id="DHObnsedGpSMgHDO8FwD-1" value="Да" style="edgeLabel;html=1;align=center;verticalAlign=middle;resizable=0;points=[];" vertex="1" connectable="0" parent="rpMUZzlqwuOw-LUmZ4mw-50">
          <mxGeometry x="-0.5038" y="-1" relative="1" as="geometry">
            <mxPoint as="offset" />
          </mxGeometry>
        </mxCell>
        <mxCell id="rpMUZzlqwuOw-LUmZ4mw-47" value="&lt;div&gt;Данные &lt;br&gt;&lt;/div&gt;&lt;div&gt;верны?&lt;/div&gt;" style="rhombus;whiteSpace=wrap;html=1;fontSize=9;fontStyle=0;verticalAlign=middle;labelPosition=center;verticalLabelPosition=middle;align=center;" parent="1" vertex="1">
          <mxGeometry x="1085" y="352.5" width="100" height="50" as="geometry" />
        </mxCell>
        <mxCell id="rpMUZzlqwuOw-LUmZ4mw-76" style="edgeStyle=orthogonalEdgeStyle;rounded=0;orthogonalLoop=1;jettySize=auto;html=1;entryX=0.5;entryY=0;entryDx=0;entryDy=0;fontSize=9;" parent="1" source="rpMUZzlqwuOw-LUmZ4mw-59" target="rpMUZzlqwuOw-LUmZ4mw-61" edge="1">
          <mxGeometry relative="1" as="geometry" />
        </mxCell>
        <mxCell id="rpMUZzlqwuOw-LUmZ4mw-59" value="Перенаправление на страницу &quot;График&quot;" style="rounded=0;whiteSpace=wrap;html=1;fontSize=9;fontStyle=0;verticalAlign=middle;labelPosition=center;verticalLabelPosition=middle;align=center;" parent="1" vertex="1">
          <mxGeometry x="922.44" y="407.5" width="95" height="40" as="geometry" />
        </mxCell>
        <mxCell id="rpMUZzlqwuOw-LUmZ4mw-112" value="Нет" style="edgeStyle=orthogonalEdgeStyle;rounded=0;orthogonalLoop=1;jettySize=auto;html=1;entryX=0.5;entryY=0;entryDx=0;entryDy=0;fontSize=9;exitX=0;exitY=0.5;exitDx=0;exitDy=0;" parent="1" source="rpMUZzlqwuOw-LUmZ4mw-61" target="rpMUZzlqwuOw-LUmZ4mw-103" edge="1">
          <mxGeometry x="0.1282" relative="1" as="geometry">
            <mxPoint as="offset" />
          </mxGeometry>
        </mxCell>
        <mxCell id="rpMUZzlqwuOw-LUmZ4mw-61" value="Работать &lt;br style=&quot;font-size: 9px&quot;&gt;с графиком?" style="rhombus;whiteSpace=wrap;html=1;fontSize=9;fontStyle=0;verticalAlign=middle;labelPosition=center;verticalLabelPosition=middle;align=center;" parent="1" vertex="1">
          <mxGeometry x="920" y="492.5" width="100" height="50" as="geometry" />
        </mxCell>
        <mxCell id="rpMUZzlqwuOw-LUmZ4mw-62" value="Да" style="edgeStyle=orthogonalEdgeStyle;rounded=0;orthogonalLoop=1;jettySize=auto;html=1;entryX=0.5;entryY=0;entryDx=0;entryDy=0;fontSize=9;fontStyle=0;verticalAlign=middle;labelPosition=center;verticalLabelPosition=middle;align=center;exitX=1;exitY=0.5;exitDx=0;exitDy=0;" parent="1" source="rpMUZzlqwuOw-LUmZ4mw-61" target="rpMUZzlqwuOw-LUmZ4mw-66" edge="1">
          <mxGeometry x="-0.3216" relative="1" as="geometry">
            <mxPoint x="1050" y="502.5" as="sourcePoint" />
            <mxPoint as="offset" />
          </mxGeometry>
        </mxCell>
        <mxCell id="rpMUZzlqwuOw-LUmZ4mw-77" style="edgeStyle=orthogonalEdgeStyle;rounded=0;orthogonalLoop=1;jettySize=auto;html=1;fontSize=9;exitX=1;exitY=0.5;exitDx=0;exitDy=0;" parent="1" source="rpMUZzlqwuOw-LUmZ4mw-64" edge="1">
          <mxGeometry relative="1" as="geometry">
            <mxPoint x="970" y="472.5" as="targetPoint" />
            <Array as="points">
              <mxPoint x="1300" y="640.5" />
              <mxPoint x="1300" y="472.5" />
            </Array>
          </mxGeometry>
        </mxCell>
        <mxCell id="rpMUZzlqwuOw-LUmZ4mw-64" value="Сохранение данных" style="rounded=0;whiteSpace=wrap;html=1;fontSize=9;fontStyle=0;verticalAlign=middle;labelPosition=center;verticalLabelPosition=middle;align=center;" parent="1" vertex="1">
          <mxGeometry x="1180" y="625" width="90" height="30" as="geometry" />
        </mxCell>
        <mxCell id="rpMUZzlqwuOw-LUmZ4mw-65" style="edgeStyle=orthogonalEdgeStyle;rounded=0;orthogonalLoop=1;jettySize=auto;html=1;entryX=0.5;entryY=0;entryDx=0;entryDy=0;fontSize=9;" parent="1" source="rpMUZzlqwuOw-LUmZ4mw-66" target="rpMUZzlqwuOw-LUmZ4mw-68" edge="1">
          <mxGeometry relative="1" as="geometry">
            <Array as="points">
              <mxPoint x="1145" y="562" />
            </Array>
          </mxGeometry>
        </mxCell>
        <mxCell id="rpMUZzlqwuOw-LUmZ4mw-66" value="&lt;div style=&quot;font-size: 9px;&quot;&gt;Выбор &lt;br style=&quot;font-size: 9px;&quot;&gt;&lt;/div&gt;&lt;div style=&quot;font-size: 9px;&quot;&gt;группы&lt;/div&gt;" style="shape=parallelogram;perimeter=parallelogramPerimeter;whiteSpace=wrap;html=1;fontSize=9;fontStyle=0;verticalAlign=middle;labelPosition=center;verticalLabelPosition=middle;align=center;" parent="1" vertex="1">
          <mxGeometry x="1027" y="550" width="90" height="25" as="geometry" />
        </mxCell>
        <mxCell id="rpMUZzlqwuOw-LUmZ4mw-78" style="edgeStyle=orthogonalEdgeStyle;rounded=0;orthogonalLoop=1;jettySize=auto;html=1;fontSize=9;exitX=1;exitY=0.5;exitDx=0;exitDy=0;" parent="1" source="rpMUZzlqwuOw-LUmZ4mw-68" target="rpMUZzlqwuOw-LUmZ4mw-64" edge="1">
          <mxGeometry relative="1" as="geometry">
            <Array as="points">
              <mxPoint x="1225" y="597.5" />
            </Array>
          </mxGeometry>
        </mxCell>
        <mxCell id="rpMUZzlqwuOw-LUmZ4mw-68" value="&lt;span style=&quot;font-size: 9px;&quot;&gt;Ввод данных&lt;/span&gt;" style="shape=parallelogram;perimeter=parallelogramPerimeter;whiteSpace=wrap;html=1;fontSize=9;fontStyle=0;verticalAlign=middle;labelPosition=center;verticalLabelPosition=middle;align=center;" parent="1" vertex="1">
          <mxGeometry x="1100" y="585" width="90" height="25" as="geometry" />
        </mxCell>
        <mxCell id="rpMUZzlqwuOw-LUmZ4mw-102" style="edgeStyle=orthogonalEdgeStyle;rounded=0;orthogonalLoop=1;jettySize=auto;html=1;entryX=0.5;entryY=0;entryDx=0;entryDy=0;fontSize=9;" parent="1" source="rpMUZzlqwuOw-LUmZ4mw-103" target="rpMUZzlqwuOw-LUmZ4mw-104" edge="1">
          <mxGeometry relative="1" as="geometry" />
        </mxCell>
        <mxCell id="rpMUZzlqwuOw-LUmZ4mw-103" value="Перенаправление на страницу &quot;Клиенты&quot;" style="rounded=0;whiteSpace=wrap;html=1;fontSize=9;fontStyle=0;verticalAlign=middle;labelPosition=center;verticalLabelPosition=middle;align=center;" parent="1" vertex="1">
          <mxGeometry x="842.5" y="585" width="95" height="40" as="geometry" />
        </mxCell>
        <mxCell id="rpMUZzlqwuOw-LUmZ4mw-116" value="Нет" style="edgeStyle=orthogonalEdgeStyle;rounded=0;orthogonalLoop=1;jettySize=auto;html=1;entryX=0.5;entryY=0;entryDx=0;entryDy=0;fontSize=9;exitX=0;exitY=0.5;exitDx=0;exitDy=0;" parent="1" source="rpMUZzlqwuOw-LUmZ4mw-104" target="rpMUZzlqwuOw-LUmZ4mw-115" edge="1">
          <mxGeometry x="-0.6522" relative="1" as="geometry">
            <mxPoint as="offset" />
          </mxGeometry>
        </mxCell>
        <mxCell id="rpMUZzlqwuOw-LUmZ4mw-104" value="Работать &lt;br style=&quot;font-size: 9px&quot;&gt;с клиентами?" style="rhombus;whiteSpace=wrap;html=1;fontSize=9;fontStyle=0;verticalAlign=middle;labelPosition=center;verticalLabelPosition=middle;align=center;" parent="1" vertex="1">
          <mxGeometry x="840" y="692.5" width="100" height="65" as="geometry" />
        </mxCell>
        <mxCell id="rpMUZzlqwuOw-LUmZ4mw-105" value="Да" style="edgeStyle=orthogonalEdgeStyle;rounded=0;orthogonalLoop=1;jettySize=auto;html=1;entryX=0.5;entryY=0;entryDx=0;entryDy=0;fontSize=9;fontStyle=0;verticalAlign=middle;labelPosition=center;verticalLabelPosition=middle;align=center;exitX=1;exitY=0.5;exitDx=0;exitDy=0;" parent="1" source="rpMUZzlqwuOw-LUmZ4mw-104" target="rpMUZzlqwuOw-LUmZ4mw-109" edge="1">
          <mxGeometry x="-0.3216" relative="1" as="geometry">
            <mxPoint x="970" y="717.5" as="sourcePoint" />
            <mxPoint as="offset" />
          </mxGeometry>
        </mxCell>
        <mxCell id="rpMUZzlqwuOw-LUmZ4mw-106" style="edgeStyle=orthogonalEdgeStyle;rounded=0;orthogonalLoop=1;jettySize=auto;html=1;fontSize=9;exitX=1;exitY=0.5;exitDx=0;exitDy=0;" parent="1" source="rpMUZzlqwuOw-LUmZ4mw-107" edge="1">
          <mxGeometry relative="1" as="geometry">
            <mxPoint x="890" y="672.5" as="targetPoint" />
            <Array as="points">
              <mxPoint x="1210" y="855.5" />
              <mxPoint x="1210" y="672.5" />
            </Array>
          </mxGeometry>
        </mxCell>
        <mxCell id="rpMUZzlqwuOw-LUmZ4mw-107" value="Сохранение данных" style="rounded=0;whiteSpace=wrap;html=1;fontSize=9;fontStyle=0;verticalAlign=middle;labelPosition=center;verticalLabelPosition=middle;align=center;" parent="1" vertex="1">
          <mxGeometry x="1100" y="840" width="90" height="30" as="geometry" />
        </mxCell>
        <mxCell id="rpMUZzlqwuOw-LUmZ4mw-108" style="edgeStyle=orthogonalEdgeStyle;rounded=0;orthogonalLoop=1;jettySize=auto;html=1;entryX=0.5;entryY=0;entryDx=0;entryDy=0;fontSize=9;" parent="1" source="rpMUZzlqwuOw-LUmZ4mw-109" target="rpMUZzlqwuOw-LUmZ4mw-111" edge="1">
          <mxGeometry relative="1" as="geometry">
            <Array as="points">
              <mxPoint x="1065" y="777" />
            </Array>
          </mxGeometry>
        </mxCell>
        <mxCell id="rpMUZzlqwuOw-LUmZ4mw-109" value="&lt;div style=&quot;font-size: 9px&quot;&gt;Выбор &lt;br style=&quot;font-size: 9px&quot;&gt;&lt;/div&gt;&lt;div style=&quot;font-size: 9px&quot;&gt;клиента&lt;br&gt;&lt;/div&gt;" style="shape=parallelogram;perimeter=parallelogramPerimeter;whiteSpace=wrap;html=1;fontSize=9;fontStyle=0;verticalAlign=middle;labelPosition=center;verticalLabelPosition=middle;align=center;" parent="1" vertex="1">
          <mxGeometry x="947" y="765" width="90" height="25" as="geometry" />
        </mxCell>
        <mxCell id="rpMUZzlqwuOw-LUmZ4mw-110" style="edgeStyle=orthogonalEdgeStyle;rounded=0;orthogonalLoop=1;jettySize=auto;html=1;fontSize=9;exitX=1;exitY=0.5;exitDx=0;exitDy=0;" parent="1" source="rpMUZzlqwuOw-LUmZ4mw-111" target="rpMUZzlqwuOw-LUmZ4mw-107" edge="1">
          <mxGeometry relative="1" as="geometry">
            <Array as="points">
              <mxPoint x="1145" y="812.5" />
            </Array>
          </mxGeometry>
        </mxCell>
        <mxCell id="rpMUZzlqwuOw-LUmZ4mw-111" value="&lt;span style=&quot;font-size: 9px;&quot;&gt;Ввод данных&lt;/span&gt;" style="shape=parallelogram;perimeter=parallelogramPerimeter;whiteSpace=wrap;html=1;fontSize=9;fontStyle=0;verticalAlign=middle;labelPosition=center;verticalLabelPosition=middle;align=center;" parent="1" vertex="1">
          <mxGeometry x="1020" y="800" width="90" height="25" as="geometry" />
        </mxCell>
        <mxCell id="rpMUZzlqwuOw-LUmZ4mw-115" value="&lt;font style=&quot;font-size: 9px;&quot;&gt;Б&lt;/font&gt;" style="ellipse;whiteSpace=wrap;html=1;fontSize=9;fontStyle=0;verticalAlign=middle;labelPosition=center;verticalLabelPosition=middle;align=center;" parent="1" vertex="1">
          <mxGeometry x="780" y="800" width="40" height="40" as="geometry" />
        </mxCell>
      </root>
    </mxGraphModel>
  </diagram>
</mxfile>
